Coordinates
version=1
nRows=22
nColumns=24
inDegrees=yes

Units are S.I. units (second, meters, Newtons, ...)
Angles are in degrees.

endheader
time	pelvis_tilt	pelvis_list	pelvis_rotation	pelvis_tx	pelvis_ty	pelvis_tz	hip_flexion_r	hip_adduction_r	hip_rotation_r	knee_angle_r	ankle_angle_r	subtalar_angle_r	mtp_angle_r	hip_flexion_l	hip_adduction_l	hip_rotation_l	knee_angle_l	ankle_angle_l	subtalar_angle_l	mtp_angle_l	lumbar_extension	lumbar_bending	lumbar_rotation
      3.09500000	    -12.10602561	     -4.03582594	      7.34171083	     -1.71646983	     -0.05534715	     -0.25428476	     42.93807500	     -0.32211098	     -9.42222346	    -17.97588388	      0.15875670	      9.16297084	     13.62723028	     -4.42237004	     -0.48627650	      7.60240913	    -19.06075288	     23.37273842	     24.63518470	    -10.63618622	      9.11948467	     -1.13458253	    -18.06724671
      3.10000000	    -11.96135593	     -4.46955547	      7.56935243	     -1.70873918	     -0.05644644	     -0.25429548	     42.87191168	     -0.01755304	     -9.68802255	    -18.84250983	     -0.36603242	      9.04133675	     13.57529722	     -4.53679748	     -1.20787916	      7.06620182	    -20.02107680	     23.35767955	     26.04851039	    -10.27244483	      9.06173939	     -0.61500635	    -18.30088448
      3.10500000	    -11.88940635	     -4.88943012	      7.66954160	     -1.70098656	     -0.05756858	     -0.25410243	     42.91431284	      0.36326152	     -9.83044446	    -19.73791406	     -1.13368192	      8.72688994	     13.76198640	     -4.54055224	     -1.94133955	      6.25971708	    -21.04249196	     23.24249494	     27.67882555	     -9.77857389	      9.08292126	     -0.10048746	    -18.38172939
      3.11000000	    -11.82422088	     -5.32045460	      7.67817799	     -1.69320966	     -0.05860213	     -0.25379780	     42.97026832	      0.83397105	     -9.82295773	    -20.62194062	     -2.10647786	      8.16462138	     14.11629929	     -4.51609069	     -2.70162719	      5.34099855	    -22.09572578	     22.95301307	     29.30391474	     -9.10538624	      9.10784743	      0.44589347	    -18.38818737
      3.11500000	    -11.83696989	     -5.80180232	      7.78651718	     -1.68549645	     -0.05955219	     -0.25361052	     43.11038506	      1.25632235	     -9.94055614	    -21.52865236	     -3.06830003	      7.64342986	     14.29540940	     -4.31872516	     -3.52387594	      4.61181817	    -23.24739238	     22.52562724	     30.96037330	     -8.35010233	      9.22092113	      1.01692066	    -18.46214562
      3.12000000	    -11.84246348	     -6.26915947	      7.73986516	     -1.67774958	     -0.06042820	     -0.25320435	     43.26436884	      1.80147766	     -9.83430677	    -22.45964260	     -4.08935777	      6.90457650	     14.39893386	     -4.11680003	     -4.36120439	      3.63615504	    -24.43232152	     21.88807485	     32.69654242	     -7.33367671	      9.31874007	      1.60178094	    -18.37934689
      3.12500000	    -11.71307866	     -6.63565968	      7.62026109	     -1.66998270	     -0.06088870	     -0.25272111	     43.24402952	      2.37129990	     -9.48614073	    -23.34487866	     -5.22569149	      5.86056393	     14.59131612	     -4.15035450	     -5.08286412	      2.80194548	    -25.29663662	     20.22108441	     34.09476492	     -3.90662037	      9.23853647	      2.11372316	    -18.22877403
      3.13000000	    -11.83453317	     -7.13739764	      7.48135347	     -1.66213083	     -0.06167042	     -0.25218971	     43.53700581	      3.00715273	     -9.31309366	    -24.34812179	     -6.05736917	      5.05332649	     14.15841960	     -3.77479184	     -5.95884883	      1.90713578	    -26.51995782	     19.08755261	     35.75486799	     -2.24470853	      9.48063965	      2.73311007	    -18.02698025
      3.13500000	    -11.81808094	     -7.52623927	      7.44713899	     -1.65440220	     -0.06211525	     -0.25179828	     43.66605674	      3.49551405	     -9.15406849	    -25.39618432	     -6.53621195	      4.43702517	     13.46192717	     -3.51375553	     -6.72819594	      1.17922941	    -27.60708789	     17.11310002	     37.25054467	      1.30668179	      9.53112906	      3.22874025	    -17.96944729
      3.14000000	    -11.86076505	     -7.94207824	      7.31082266	     -1.64660597	     -0.06259598	     -0.25119650	     43.83810567	      4.10499942	     -8.86129145	    -26.39425891	     -7.00885498	      3.60618764	     12.76715907	     -3.15121387	     -7.54357892	      0.38335134	    -28.82901664	     15.24291480	     38.80085403	      3.97562661	      9.65530055	      3.74745473	    -17.80405428
      3.14500000	    -11.99893626	     -8.43882980	      7.16946597	     -1.63878712	     -0.06321407	     -0.25059021	     44.08413508	      4.77219333	     -8.63106190	    -27.31877051	     -7.41279654	      2.74071194	     12.34724148	     -2.57434522	     -8.45148230	     -0.36408079	    -30.32970070	     13.67434022	     40.30983636	      5.16123840	      9.90747250	      4.33723684	    -17.67741167
      3.15000000	    -11.91301406	     -8.70435143	      7.01953506	     -1.63100875	     -0.06332184	     -0.24993726	     44.05036494	      5.30217209	     -8.29069249	    -28.29265297	     -7.35899149	      2.14907902	     11.37160575	     -2.35112217	     -9.09035708	     -0.89343476	    -31.36298947	     10.81926385	     41.54722630	      9.38099385	      9.85715831	      4.70627392	    -17.45041859
      3.15500000	    -11.93618649	     -9.06540695	      6.86414627	     -1.62325936	     -0.06363240	     -0.24924142	     44.09500244	      5.90484350	     -7.99797610	    -29.15331464	     -7.30544732	      1.49894147	     10.89697706	     -1.88118670	     -9.83642626	     -1.38463077	    -32.70883101	      8.37886907	     42.75034196	     11.88847855	      9.94326745	      5.15169416	    -17.28164745
      3.16000000	    -11.95818815	     -9.41598814	      6.69962152	     -1.61546518	     -0.06388659	     -0.24853360	     44.08996949	      6.49275165	     -7.79930374	    -29.95029279	     -7.08079904	      0.99035078	     10.57262548	     -1.38623191	    -10.55653135	     -1.77008916	    -34.06735311	      5.79103010	     43.78914459	     14.17099822	     10.03839134	      5.57974096	    -17.10875456
      3.16500000	    -11.99342940	     -9.77257901	      6.54937292	     -1.60777218	     -0.06413031	     -0.24776764	     44.05928485	      7.07985991	     -7.67079248	    -30.66031392	     -6.82356794	      0.40801884	     10.40045116	     -0.80156867	    -11.27396731	     -2.02561894	    -35.52797861	      3.24366589	     44.70029461	     15.84519721	     10.13913791	      5.99430812	    -16.93845380
      3.17000000	    -11.99675052	    -10.09725055	      6.35747131	     -1.60011951	     -0.06431663	     -0.24704115	     43.94692277	      7.64364483	     -7.55768025	    -31.31869695	     -6.31543532	      0.21387726	     10.44979293	     -0.23579049	    -11.92845632	     -2.23621806	    -36.97384635	      0.56139036	     45.35858877	     17.55829995	     10.18828528	      6.39687989	    -16.73257293
      3.17500000	    -12.05174495	    -10.49418920	      6.19147957	     -1.59257488	     -0.06453989	     -0.24630882	     43.84020638	      8.24868201	     -7.51258675	    -31.85015517	     -5.84504956	     -0.07163258	     10.59837871	      0.48890424	    -12.64130085	     -2.31296561	    -38.57915889	     -1.83958874	     45.81840123	     18.31488196	     10.29911122	      6.85505819	    -16.59012807
      3.18000000	    -12.08478059	    -10.84128396	      5.98725548	     -1.58509951	     -0.06468039	     -0.24554736	     43.66513668	      8.81847566	     -7.49587317	    -32.32385498	     -5.24668165	     -0.14758097	     10.89975816	      1.20179141	    -13.27823246	     -2.36102130	    -40.15199309	     -4.27290363	     46.06395597	     19.07821878	     10.36827606	      7.27067551	    -16.37650295
      3.18500000	    -12.12628838	    -11.20590751	      5.75240848	     -1.57763977	     -0.06477408	     -0.24478114	     43.44579303	      9.40642520	     -7.53487350	    -32.70576116	     -4.58033865	     -0.11922591	     11.27499561	      1.95582117	    -13.91004706	     -2.36751410	    -41.77480360	     -6.43697765	     46.07686408	     19.20173297	     10.45527415	      7.70901392	    -16.12086563
      3.19000000	    -12.15607632	    -11.57885793	      5.49885475	     -1.57037093	     -0.06476766	     -0.24405853	     43.17163262	     10.00556782	     -7.56969540	    -32.99368684	     -3.95338156	     -0.02260201	     11.63415120	      2.75924914	    -14.52073831	     -2.34093996	    -43.45341604	     -8.38043340	     45.77256633	     19.07793701	     10.49619920	      8.17501408	    -15.82478448
      3.19500000	    -12.18328148	    -11.94129347	      5.23853324	     -1.56313989	     -0.06470098	     -0.24330450	     42.84241673	     10.60336073	     -7.60767066	    -33.19801629	     -3.26393667	      0.07456510	     11.99937423	      3.59573692	    -15.12078653	     -2.34544328	    -45.14062184	    -10.11198375	     45.25509230	     18.87999134	     10.53667070	      8.61806732	    -15.55794046
      3.20000000	    -12.24119367	    -12.33042598	      4.97796681	     -1.55600155	     -0.06456589	     -0.24255509	     42.50644365	     11.20354156	     -7.70395479	    -33.31510082	     -2.61915289	      0.26243746	     12.39456312	      4.51924825	    -15.73345212	     -2.31223635	    -46.83755062	    -11.61281092	     44.55482015	     18.73528120	     10.60846459	      9.07881736	    -15.25735437
